<?xml version="1.0" encoding="UTF-8" standalone="no"?>
<!DOCTYPE svg PUBLIC "-//W3C//DTD SVG 1.1//EN"
 "http://www.w3.org/Graphics/SVG/1.1/DTD/svg11.dtd">
<!-- Generated by graphviz version 2.38.0 (20140413.2041)
 -->
<!-- Title: models_diagram Pages: 1 -->
<svg width="524pt" height="246pt"
 viewBox="0.00 0.00 524.40 246.00" xmlns="http://www.w3.org/2000/svg" xmlns:xlink="http://www.w3.org/1999/xlink">
<g id="graph0" class="graph" transform="scale(1 1) rotate(0) translate(4 242)">
<title>models_diagram</title>
<polygon fill="none" stroke="none" points="-4,4 -4,-242 520.397,-242 520.397,4 -4,4"/>
<!-- _diagram_info -->
<g id="node1" class="node"><title>_diagram_info</title>
<text text-anchor="start" x="8" y="-223.6" font-family="Times,serif" font-size="13.00">Models diagram</text>
<text text-anchor="start" x="8" y="-209.6" font-family="Times,serif" font-size="13.00">Date: Jul 18 2016 &#45; 21:02</text>
<text text-anchor="start" x="8" y="-195.6" font-family="Times,serif" font-size="13.00">Migration version: 20160718234543</text>
<text text-anchor="start" x="8" y="-181.6" font-family="Times,serif" font-size="13.00">Generated by RailRoady 1.5.1</text>
<text text-anchor="start" x="8" y="-167.6" font-family="Times,serif" font-size="13.00">http://railroady.prestonlee.com</text>
</g>
<!-- Inventory -->
<g id="node2" class="node"><title>Inventory</title>
<ellipse fill="none" stroke="black" cx="277" cy="-199" rx="44.6926" ry="18"/>
<text text-anchor="middle" x="277" y="-195.3" font-family="Times,serif" font-size="14.00">Inventory</text>
</g>
<!-- Work -->
<g id="node3" class="node"><title>Work</title>
<ellipse fill="none" stroke="black" cx="469" cy="-18" rx="31.3957" ry="18"/>
<text text-anchor="middle" x="469" y="-14.3" font-family="Times,serif" font-size="14.00">Work</text>
</g>
<!-- Item -->
<g id="node4" class="node"><title>Item</title>
<ellipse fill="none" stroke="black" cx="383" cy="-105" rx="27.0966" ry="18"/>
<text text-anchor="middle" x="383" y="-101.3" font-family="Times,serif" font-size="14.00">Item</text>
</g>
<!-- Item&#45;&gt;Work -->
<g id="edge2" class="edge"><title>Item&#45;&gt;Work</title>
<path fill="none" stroke="#1b625f" d="M408.927,-87.1943C416.411,-81.8008 424.346,-75.5228 431,-69 438.825,-61.3291 446.362,-51.9752 452.632,-43.4419"/>
<ellipse fill="none" stroke="#1b625f" cx="405.508" cy="-89.587" rx="4.00002" ry="4.00002"/>
<polygon fill="#1b625f" stroke="#1b625f" points="452.646,-43.4228 462.11,-37.8838 455.544,-39.3488 458.443,-35.2749 458.443,-35.2749 458.443,-35.2749 455.544,-39.3488 454.777,-32.666 452.646,-43.4228 452.646,-43.4228"/>
</g>
<!-- Inventories -->
<g id="node8" class="node"><title>Inventories</title>
<ellipse fill="none" stroke="black" cx="369" cy="-18" rx="50.0912" ry="18"/>
<text text-anchor="middle" x="369" y="-14.3" font-family="Times,serif" font-size="14.00">Inventories</text>
</g>
<!-- Item&#45;&gt;Inventories -->
<g id="edge1" class="edge"><title>Item&#45;&gt;Inventories</title>
<path fill="none" stroke="#50f0e4" d="M372.876,-79.947C371.705,-76.3331 370.686,-72.6079 370,-69 368.5,-61.1074 367.954,-52.3881 367.868,-44.4708"/>
<ellipse fill="none" stroke="#50f0e4" cx="374.264" cy="-83.8259" rx="4.00001" ry="4.00001"/>
<ellipse fill="#50f0e4" stroke="#50f0e4" cx="367.9" cy="-40.2714" rx="4" ry="4"/>
<text text-anchor="middle" x="400.5" y="-57.8" font-family="Times,serif" font-size="14.00">inventories</text>
</g>
<!-- Category -->
<g id="node5" class="node"><title>Category</title>
<ellipse fill="none" stroke="black" cx="383" cy="-199" rx="42.7926" ry="18"/>
<text text-anchor="middle" x="383" y="-195.3" font-family="Times,serif" font-size="14.00">Category</text>
</g>
<!-- Category&#45;&gt;Item -->
<g id="edge3" class="edge"><title>Category&#45;&gt;Item</title>
<path fill="none" stroke="#c21948" d="M383,-172.451C383,-160.315 383,-145.795 383,-133.427"/>
<ellipse fill="none" stroke="#c21948" cx="383" cy="-176.696" rx="4" ry="4"/>
<polygon fill="#c21948" stroke="#c21948" points="383,-133.227 387.5,-123.227 383,-128.227 383,-123.227 383,-123.227 383,-123.227 383,-128.227 378.5,-123.227 383,-133.227 383,-133.227"/>
</g>
<!-- Record -->
<g id="node6" class="node"><title>Record</title>
<ellipse fill="none" stroke="black" cx="480" cy="-199" rx="36.2938" ry="18"/>
<text text-anchor="middle" x="480" y="-195.3" font-family="Times,serif" font-size="14.00">Record</text>
</g>
<!-- User -->
<g id="node7" class="node"><title>User</title>
<ellipse fill="none" stroke="black" cx="470" cy="-105" rx="27.0966" ry="18"/>
<text text-anchor="middle" x="470" y="-101.3" font-family="Times,serif" font-size="14.00">User</text>
</g>
<!-- User&#45;&gt;Work -->
<g id="edge4" class="edge"><title>User&#45;&gt;Work</title>
<path fill="none" stroke="#5d1b7f" d="M469.702,-78.6937C469.582,-68.5119 469.444,-56.7466 469.322,-46.3666"/>
<ellipse fill="none" stroke="#5d1b7f" cx="469.751" cy="-82.7993" rx="4" ry="4"/>
<polygon fill="#5d1b7f" stroke="#5d1b7f" points="469.32,-46.1747 473.702,-36.1225 469.261,-41.1751 469.202,-36.1754 469.202,-36.1754 469.202,-36.1754 469.261,-41.1751 464.702,-36.2284 469.32,-46.1747 469.32,-46.1747"/>
</g>
</g>
</svg>
