<?xml version="1.0" encoding="UTF-8" standalone="no"?>
<!DOCTYPE svg PUBLIC "-//W3C//DTD SVG 1.1//EN"
 "http://www.w3.org/Graphics/SVG/1.1/DTD/svg11.dtd">
<!-- Generated by graphviz version 2.38.0 (20140413.2041)
 -->
<!-- Title: models_diagram Pages: 1 -->
<svg width="776pt" height="431pt"
 viewBox="0.00 0.00 776.00 431.00" xmlns="http://www.w3.org/2000/svg" xmlns:xlink="http://www.w3.org/1999/xlink">
<g id="graph0" class="graph" transform="scale(1 1) rotate(0) translate(4 427)">
<title>models_diagram</title>
<polygon fill="none" stroke="none" points="-4,4 -4,-427 772,-427 772,4 -4,4"/>
<!-- _diagram_info -->
<g id="node1" class="node"><title>_diagram_info</title>
<text text-anchor="start" x="38" y="-401.6" font-family="Times,serif" font-size="13.00">Models diagram</text>
<text text-anchor="start" x="38" y="-387.6" font-family="Times,serif" font-size="13.00">Date: Jul 18 2016 &#45; 19:57</text>
<text text-anchor="start" x="38" y="-373.6" font-family="Times,serif" font-size="13.00">Migration version: 20160718234543</text>
<text text-anchor="start" x="38" y="-359.6" font-family="Times,serif" font-size="13.00">Generated by RailRoady 1.5.1</text>
<text text-anchor="start" x="38" y="-345.6" font-family="Times,serif" font-size="13.00">http://railroady.prestonlee.com</text>
</g>
<!-- Inventory -->
<g id="node2" class="node"><title>Inventory</title>
<path fill="none" stroke="black" d="M274,-15.5C274,-15.5 494,-15.5 494,-15.5 500,-15.5 506,-21.5 506,-27.5 506,-27.5 506,-94.5 506,-94.5 506,-100.5 500,-106.5 494,-106.5 494,-106.5 274,-106.5 274,-106.5 268,-106.5 262,-100.5 262,-94.5 262,-94.5 262,-27.5 262,-27.5 262,-21.5 268,-15.5 274,-15.5"/>
<text text-anchor="middle" x="384" y="-91.3" font-family="Times,serif" font-size="14.00">Inventory</text>
<polyline fill="none" stroke="black" points="262,-83.5 506,-83.5 "/>
<text text-anchor="start" x="270" y="-68.3" font-family="Times,serif" font-size="14.00">id :integer</text>
<text text-anchor="start" x="270" y="-53.3" font-family="Times,serif" font-size="14.00">item_id :integer</text>
<text text-anchor="start" x="270" y="-38.3" font-family="Times,serif" font-size="14.00">created_at :timestamp without time zone</text>
<text text-anchor="start" x="270" y="-23.3" font-family="Times,serif" font-size="14.00">updated_at :timestamp without time zone</text>
</g>
<!-- Work -->
<g id="node3" class="node"><title>Work</title>
<path fill="none" stroke="black" d="M12,-0.5C12,-0.5 232,-0.5 232,-0.5 238,-0.5 244,-6.5 244,-12.5 244,-12.5 244,-109.5 244,-109.5 244,-115.5 238,-121.5 232,-121.5 232,-121.5 12,-121.5 12,-121.5 6,-121.5 0,-115.5 0,-109.5 0,-109.5 0,-12.5 0,-12.5 0,-6.5 6,-0.5 12,-0.5"/>
<text text-anchor="middle" x="122" y="-106.3" font-family="Times,serif" font-size="14.00">Work</text>
<polyline fill="none" stroke="black" points="0,-98.5 244,-98.5 "/>
<text text-anchor="start" x="8" y="-83.3" font-family="Times,serif" font-size="14.00">id :integer</text>
<text text-anchor="start" x="8" y="-68.3" font-family="Times,serif" font-size="14.00">user_id :integer</text>
<text text-anchor="start" x="8" y="-53.3" font-family="Times,serif" font-size="14.00">item_id :integer</text>
<text text-anchor="start" x="8" y="-38.3" font-family="Times,serif" font-size="14.00">description :character varying</text>
<text text-anchor="start" x="8" y="-23.3" font-family="Times,serif" font-size="14.00">created_at :timestamp without time zone</text>
<text text-anchor="start" x="8" y="-8.3" font-family="Times,serif" font-size="14.00">updated_at :timestamp without time zone</text>
</g>
<!-- Item -->
<g id="node4" class="node"><title>Item</title>
<path fill="none" stroke="black" d="M274,-158.5C274,-158.5 494,-158.5 494,-158.5 500,-158.5 506,-164.5 506,-170.5 506,-170.5 506,-282.5 506,-282.5 506,-288.5 500,-294.5 494,-294.5 494,-294.5 274,-294.5 274,-294.5 268,-294.5 262,-288.5 262,-282.5 262,-282.5 262,-170.5 262,-170.5 262,-164.5 268,-158.5 274,-158.5"/>
<text text-anchor="middle" x="384" y="-279.3" font-family="Times,serif" font-size="14.00">Item</text>
<polyline fill="none" stroke="black" points="262,-271.5 506,-271.5 "/>
<text text-anchor="start" x="270" y="-256.3" font-family="Times,serif" font-size="14.00">id :integer</text>
<text text-anchor="start" x="270" y="-241.3" font-family="Times,serif" font-size="14.00">item_size :integer</text>
<text text-anchor="start" x="270" y="-226.3" font-family="Times,serif" font-size="14.00">description :character varying</text>
<text text-anchor="start" x="270" y="-211.3" font-family="Times,serif" font-size="14.00">serial_number :integer</text>
<text text-anchor="start" x="270" y="-196.3" font-family="Times,serif" font-size="14.00">category_id :integer</text>
<text text-anchor="start" x="270" y="-181.3" font-family="Times,serif" font-size="14.00">created_at :timestamp without time zone</text>
<text text-anchor="start" x="270" y="-166.3" font-family="Times,serif" font-size="14.00">updated_at :timestamp without time zone</text>
</g>
<!-- Item&#45;&gt;Inventory -->
<g id="edge1" class="edge"><title>Item&#45;&gt;Inventory</title>
<path fill="none" stroke="#801a96" d="M384,-149.921C384,-138.886 384,-127.701 384,-117.176"/>
<ellipse fill="none" stroke="#801a96" cx="384" cy="-154.054" rx="4" ry="4"/>
<polygon fill="#801a96" stroke="#801a96" points="384,-116.9 388.5,-106.9 384,-111.9 384,-106.9 384,-106.9 384,-106.9 384,-111.9 379.5,-106.9 384,-116.9 384,-116.9"/>
</g>
<!-- Item&#45;&gt;Work -->
<g id="edge2" class="edge"><title>Item&#45;&gt;Work</title>
<path fill="none" stroke="#fe701c" d="M269.427,-154.001C255.084,-145.05 240.474,-135.933 226.299,-127.088"/>
<ellipse fill="none" stroke="#fe701c" cx="272.907" cy="-156.173" rx="4.00002" ry="4.00002"/>
<polygon fill="#fe701c" stroke="#fe701c" points="226.02,-126.913 219.919,-117.801 221.778,-124.266 217.536,-121.619 217.536,-121.619 217.536,-121.619 221.778,-124.266 215.154,-125.437 226.02,-126.913 226.02,-126.913"/>
</g>
<!-- Category -->
<g id="node5" class="node"><title>Category</title>
<path fill="none" stroke="black" d="M274,-331.5C274,-331.5 494,-331.5 494,-331.5 500,-331.5 506,-337.5 506,-343.5 506,-343.5 506,-410.5 506,-410.5 506,-416.5 500,-422.5 494,-422.5 494,-422.5 274,-422.5 274,-422.5 268,-422.5 262,-416.5 262,-410.5 262,-410.5 262,-343.5 262,-343.5 262,-337.5 268,-331.5 274,-331.5"/>
<text text-anchor="middle" x="384" y="-407.3" font-family="Times,serif" font-size="14.00">Category</text>
<polyline fill="none" stroke="black" points="262,-399.5 506,-399.5 "/>
<text text-anchor="start" x="270" y="-384.3" font-family="Times,serif" font-size="14.00">id :integer</text>
<text text-anchor="start" x="270" y="-369.3" font-family="Times,serif" font-size="14.00">name :character varying</text>
<text text-anchor="start" x="270" y="-354.3" font-family="Times,serif" font-size="14.00">created_at :timestamp without time zone</text>
<text text-anchor="start" x="270" y="-339.3" font-family="Times,serif" font-size="14.00">updated_at :timestamp without time zone</text>
</g>
<!-- Category&#45;&gt;Item -->
<g id="edge3" class="edge"><title>Category&#45;&gt;Item</title>
<path fill="none" stroke="#05370c" d="M384,-323.386C384,-317.259 384,-310.916 384,-304.546"/>
<ellipse fill="none" stroke="#05370c" cx="384" cy="-327.445" rx="4" ry="4"/>
<polygon fill="#05370c" stroke="#05370c" points="384,-304.541 388.5,-294.541 384,-299.541 384,-294.541 384,-294.541 384,-294.541 384,-299.541 379.5,-294.541 384,-304.541 384,-304.541"/>
</g>
<!-- Record -->
<g id="node6" class="node"><title>Record</title>
<path fill="none" stroke="black" d="M536,-331.5C536,-331.5 756,-331.5 756,-331.5 762,-331.5 768,-337.5 768,-343.5 768,-343.5 768,-410.5 768,-410.5 768,-416.5 762,-422.5 756,-422.5 756,-422.5 536,-422.5 536,-422.5 530,-422.5 524,-416.5 524,-410.5 524,-410.5 524,-343.5 524,-343.5 524,-337.5 530,-331.5 536,-331.5"/>
<text text-anchor="middle" x="646" y="-407.3" font-family="Times,serif" font-size="14.00">Record</text>
<polyline fill="none" stroke="black" points="524,-399.5 768,-399.5 "/>
<text text-anchor="start" x="532" y="-384.3" font-family="Times,serif" font-size="14.00">id :integer</text>
<text text-anchor="start" x="532" y="-369.3" font-family="Times,serif" font-size="14.00">description :character varying</text>
<text text-anchor="start" x="532" y="-354.3" font-family="Times,serif" font-size="14.00">created_at :timestamp without time zone</text>
<text text-anchor="start" x="532" y="-339.3" font-family="Times,serif" font-size="14.00">updated_at :timestamp without time zone</text>
</g>
<!-- User -->
<g id="node7" class="node"><title>User</title>
<path fill="none" stroke="black" d="M12,-173.5C12,-173.5 232,-173.5 232,-173.5 238,-173.5 244,-179.5 244,-185.5 244,-185.5 244,-267.5 244,-267.5 244,-273.5 238,-279.5 232,-279.5 232,-279.5 12,-279.5 12,-279.5 6,-279.5 0,-273.5 0,-267.5 0,-267.5 0,-185.5 0,-185.5 0,-179.5 6,-173.5 12,-173.5"/>
<text text-anchor="middle" x="122" y="-264.3" font-family="Times,serif" font-size="14.00">User</text>
<polyline fill="none" stroke="black" points="0,-256.5 244,-256.5 "/>
<text text-anchor="start" x="8" y="-241.3" font-family="Times,serif" font-size="14.00">id :integer</text>
<text text-anchor="start" x="8" y="-226.3" font-family="Times,serif" font-size="14.00">name :character varying</text>
<text text-anchor="start" x="8" y="-211.3" font-family="Times,serif" font-size="14.00">email :character varying</text>
<text text-anchor="start" x="8" y="-196.3" font-family="Times,serif" font-size="14.00">created_at :timestamp without time zone</text>
<text text-anchor="start" x="8" y="-181.3" font-family="Times,serif" font-size="14.00">updated_at :timestamp without time zone</text>
</g>
<!-- User&#45;&gt;Work -->
<g id="edge4" class="edge"><title>User&#45;&gt;Work</title>
<path fill="none" stroke="#e5e56e" d="M122,-165.088C122,-154.228 122,-142.829 122,-131.731"/>
<ellipse fill="none" stroke="#e5e56e" cx="122" cy="-169.318" rx="4" ry="4"/>
<polygon fill="#e5e56e" stroke="#e5e56e" points="122,-131.649 126.5,-121.649 122,-126.649 122,-121.649 122,-121.649 122,-121.649 122,-126.649 117.5,-121.649 122,-131.649 122,-131.649"/>
</g>
</g>
</svg>
