<?xml version="1.0" encoding="UTF-8" standalone="no"?>
<!DOCTYPE svg PUBLIC "-//W3C//DTD SVG 1.1//EN"
 "http://www.w3.org/Graphics/SVG/1.1/DTD/svg11.dtd">
<!-- Generated by graphviz version 2.38.0 (20140413.2041)
 -->
<!-- Title: models_diagram Pages: 1 -->
<svg width="1008pt" height="447pt"
 viewBox="0.00 0.00 1008.00 447.00" xmlns="http://www.w3.org/2000/svg" xmlns:xlink="http://www.w3.org/1999/xlink">
<g id="graph0" class="graph" transform="scale(1 1) rotate(0) translate(4 443)">
<title>models_diagram</title>
<polygon fill="none" stroke="none" points="-4,4 -4,-443 1004,-443 1004,4 -4,4"/>
<!-- _diagram_info -->
<g id="node1" class="node"><title>_diagram_info</title>
<text text-anchor="start" x="8" y="-417.6" font-family="Times,serif" font-size="13.00">Models diagram</text>
<text text-anchor="start" x="8" y="-403.6" font-family="Times,serif" font-size="13.00">Date: Jul 18 2016 &#45; 21:02</text>
<text text-anchor="start" x="8" y="-389.6" font-family="Times,serif" font-size="13.00">Migration version: 20160718234543</text>
<text text-anchor="start" x="8" y="-375.6" font-family="Times,serif" font-size="13.00">Generated by RailRoady 1.5.1</text>
<text text-anchor="start" x="8" y="-361.6" font-family="Times,serif" font-size="13.00">http://railroady.prestonlee.com</text>
</g>
<!-- Inventory -->
<g id="node2" class="node"><title>Inventory</title>
<path fill="none" stroke="black" d="M244,-347.5C244,-347.5 464,-347.5 464,-347.5 470,-347.5 476,-353.5 476,-359.5 476,-359.5 476,-426.5 476,-426.5 476,-432.5 470,-438.5 464,-438.5 464,-438.5 244,-438.5 244,-438.5 238,-438.5 232,-432.5 232,-426.5 232,-426.5 232,-359.5 232,-359.5 232,-353.5 238,-347.5 244,-347.5"/>
<text text-anchor="middle" x="354" y="-423.3" font-family="Times,serif" font-size="14.00">Inventory</text>
<polyline fill="none" stroke="black" points="232,-415.5 476,-415.5 "/>
<text text-anchor="start" x="240" y="-400.3" font-family="Times,serif" font-size="14.00">id :integer</text>
<text text-anchor="start" x="240" y="-385.3" font-family="Times,serif" font-size="14.00">item_id :integer</text>
<text text-anchor="start" x="240" y="-370.3" font-family="Times,serif" font-size="14.00">created_at :timestamp without time zone</text>
<text text-anchor="start" x="240" y="-355.3" font-family="Times,serif" font-size="14.00">updated_at :timestamp without time zone</text>
</g>
<!-- Work -->
<g id="node3" class="node"><title>Work</title>
<path fill="none" stroke="black" d="M732,-0.5C732,-0.5 952,-0.5 952,-0.5 958,-0.5 964,-6.5 964,-12.5 964,-12.5 964,-109.5 964,-109.5 964,-115.5 958,-121.5 952,-121.5 952,-121.5 732,-121.5 732,-121.5 726,-121.5 720,-115.5 720,-109.5 720,-109.5 720,-12.5 720,-12.5 720,-6.5 726,-0.5 732,-0.5"/>
<text text-anchor="middle" x="842" y="-106.3" font-family="Times,serif" font-size="14.00">Work</text>
<polyline fill="none" stroke="black" points="720,-98.5 964,-98.5 "/>
<text text-anchor="start" x="728" y="-83.3" font-family="Times,serif" font-size="14.00">id :integer</text>
<text text-anchor="start" x="728" y="-68.3" font-family="Times,serif" font-size="14.00">user_id :integer</text>
<text text-anchor="start" x="728" y="-53.3" font-family="Times,serif" font-size="14.00">item_id :integer</text>
<text text-anchor="start" x="728" y="-38.3" font-family="Times,serif" font-size="14.00">description :character varying</text>
<text text-anchor="start" x="728" y="-23.3" font-family="Times,serif" font-size="14.00">created_at :timestamp without time zone</text>
<text text-anchor="start" x="728" y="-8.3" font-family="Times,serif" font-size="14.00">updated_at :timestamp without time zone</text>
</g>
<!-- Item -->
<g id="node4" class="node"><title>Item</title>
<path fill="none" stroke="black" d="M506,-173.5C506,-173.5 726,-173.5 726,-173.5 732,-173.5 738,-179.5 738,-185.5 738,-185.5 738,-297.5 738,-297.5 738,-303.5 732,-309.5 726,-309.5 726,-309.5 506,-309.5 506,-309.5 500,-309.5 494,-303.5 494,-297.5 494,-297.5 494,-185.5 494,-185.5 494,-179.5 500,-173.5 506,-173.5"/>
<text text-anchor="middle" x="616" y="-294.3" font-family="Times,serif" font-size="14.00">Item</text>
<polyline fill="none" stroke="black" points="494,-286.5 738,-286.5 "/>
<text text-anchor="start" x="502" y="-271.3" font-family="Times,serif" font-size="14.00">id :integer</text>
<text text-anchor="start" x="502" y="-256.3" font-family="Times,serif" font-size="14.00">item_size :integer</text>
<text text-anchor="start" x="502" y="-241.3" font-family="Times,serif" font-size="14.00">description :character varying</text>
<text text-anchor="start" x="502" y="-226.3" font-family="Times,serif" font-size="14.00">serial_number :integer</text>
<text text-anchor="start" x="502" y="-211.3" font-family="Times,serif" font-size="14.00">category_id :integer</text>
<text text-anchor="start" x="502" y="-196.3" font-family="Times,serif" font-size="14.00">created_at :timestamp without time zone</text>
<text text-anchor="start" x="502" y="-181.3" font-family="Times,serif" font-size="14.00">updated_at :timestamp without time zone</text>
</g>
<!-- Item&#45;&gt;Work -->
<g id="edge2" class="edge"><title>Item&#45;&gt;Work</title>
<path fill="none" stroke="#074d31" d="M707.462,-168.261C724.344,-154.928 741.892,-141.068 758.522,-127.933"/>
<ellipse fill="none" stroke="#074d31" cx="704.258" cy="-170.792" rx="4.00002" ry="4.00002"/>
<polygon fill="#074d31" stroke="#074d31" points="758.758,-127.747 769.395,-125.08 762.682,-124.647 766.605,-121.548 766.605,-121.548 766.605,-121.548 762.682,-124.647 763.816,-118.017 758.758,-127.747 758.758,-127.747"/>
</g>
<!-- Inventories -->
<g id="node8" class="node"><title>Inventories</title>
<ellipse fill="none" stroke="black" cx="616" cy="-61" rx="50.0912" ry="18"/>
<text text-anchor="middle" x="616" y="-57.3" font-family="Times,serif" font-size="14.00">Inventories</text>
</g>
<!-- Item&#45;&gt;Inventories -->
<g id="edge1" class="edge"><title>Item&#45;&gt;Inventories</title>
<path fill="none" stroke="#917714" d="M616,-165.23C616,-137.34 616,-107.582 616,-87.2173"/>
<ellipse fill="none" stroke="#917714" cx="616" cy="-169.271" rx="4" ry="4"/>
<ellipse fill="#917714" stroke="#917714" cx="616" cy="-83.0976" rx="4" ry="4"/>
<text text-anchor="middle" x="646.5" y="-143.8" font-family="Times,serif" font-size="14.00">inventories</text>
</g>
<!-- Category -->
<g id="node5" class="node"><title>Category</title>
<path fill="none" stroke="black" d="M506,-347.5C506,-347.5 726,-347.5 726,-347.5 732,-347.5 738,-353.5 738,-359.5 738,-359.5 738,-426.5 738,-426.5 738,-432.5 732,-438.5 726,-438.5 726,-438.5 506,-438.5 506,-438.5 500,-438.5 494,-432.5 494,-426.5 494,-426.5 494,-359.5 494,-359.5 494,-353.5 500,-347.5 506,-347.5"/>
<text text-anchor="middle" x="616" y="-423.3" font-family="Times,serif" font-size="14.00">Category</text>
<polyline fill="none" stroke="black" points="494,-415.5 738,-415.5 "/>
<text text-anchor="start" x="502" y="-400.3" font-family="Times,serif" font-size="14.00">id :integer</text>
<text text-anchor="start" x="502" y="-385.3" font-family="Times,serif" font-size="14.00">name :character varying</text>
<text text-anchor="start" x="502" y="-370.3" font-family="Times,serif" font-size="14.00">created_at :timestamp without time zone</text>
<text text-anchor="start" x="502" y="-355.3" font-family="Times,serif" font-size="14.00">updated_at :timestamp without time zone</text>
</g>
<!-- Category&#45;&gt;Item -->
<g id="edge3" class="edge"><title>Category&#45;&gt;Item</title>
<path fill="none" stroke="#7172d4" d="M616,-338.971C616,-332.756 616,-326.321 616,-319.861"/>
<ellipse fill="none" stroke="#7172d4" cx="616" cy="-343.145" rx="4" ry="4"/>
<polygon fill="#7172d4" stroke="#7172d4" points="616,-319.715 620.5,-309.715 616,-314.715 616,-309.715 616,-309.715 616,-309.715 616,-314.715 611.5,-309.715 616,-319.715 616,-319.715"/>
</g>
<!-- Record -->
<g id="node6" class="node"><title>Record</title>
<path fill="none" stroke="black" d="M768,-347.5C768,-347.5 988,-347.5 988,-347.5 994,-347.5 1000,-353.5 1000,-359.5 1000,-359.5 1000,-426.5 1000,-426.5 1000,-432.5 994,-438.5 988,-438.5 988,-438.5 768,-438.5 768,-438.5 762,-438.5 756,-432.5 756,-426.5 756,-426.5 756,-359.5 756,-359.5 756,-353.5 762,-347.5 768,-347.5"/>
<text text-anchor="middle" x="878" y="-423.3" font-family="Times,serif" font-size="14.00">Record</text>
<polyline fill="none" stroke="black" points="756,-415.5 1000,-415.5 "/>
<text text-anchor="start" x="764" y="-400.3" font-family="Times,serif" font-size="14.00">id :integer</text>
<text text-anchor="start" x="764" y="-385.3" font-family="Times,serif" font-size="14.00">description :character varying</text>
<text text-anchor="start" x="764" y="-370.3" font-family="Times,serif" font-size="14.00">created_at :timestamp without time zone</text>
<text text-anchor="start" x="764" y="-355.3" font-family="Times,serif" font-size="14.00">updated_at :timestamp without time zone</text>
</g>
<!-- User -->
<g id="node7" class="node"><title>User</title>
<path fill="none" stroke="black" d="M768,-188.5C768,-188.5 988,-188.5 988,-188.5 994,-188.5 1000,-194.5 1000,-200.5 1000,-200.5 1000,-282.5 1000,-282.5 1000,-288.5 994,-294.5 988,-294.5 988,-294.5 768,-294.5 768,-294.5 762,-294.5 756,-288.5 756,-282.5 756,-282.5 756,-200.5 756,-200.5 756,-194.5 762,-188.5 768,-188.5"/>
<text text-anchor="middle" x="878" y="-279.3" font-family="Times,serif" font-size="14.00">User</text>
<polyline fill="none" stroke="black" points="756,-271.5 1000,-271.5 "/>
<text text-anchor="start" x="764" y="-256.3" font-family="Times,serif" font-size="14.00">id :integer</text>
<text text-anchor="start" x="764" y="-241.3" font-family="Times,serif" font-size="14.00">name :character varying</text>
<text text-anchor="start" x="764" y="-226.3" font-family="Times,serif" font-size="14.00">email :character varying</text>
<text text-anchor="start" x="764" y="-211.3" font-family="Times,serif" font-size="14.00">created_at :timestamp without time zone</text>
<text text-anchor="start" x="764" y="-196.3" font-family="Times,serif" font-size="14.00">updated_at :timestamp without time zone</text>
</g>
<!-- User&#45;&gt;Work -->
<g id="edge4" class="edge"><title>User&#45;&gt;Work</title>
<path fill="none" stroke="#f4ce31" d="M865.882,-180.414C862.722,-164.745 859.29,-147.73 856.04,-131.613"/>
<ellipse fill="none" stroke="#f4ce31" cx="866.7" cy="-184.47" rx="4.00001" ry="4.00001"/>
<polygon fill="#f4ce31" stroke="#f4ce31" points="856.02,-131.517 858.454,-120.825 855.032,-126.616 854.043,-121.714 854.043,-121.714 854.043,-121.714 855.032,-126.616 849.632,-122.604 856.02,-131.517 856.02,-131.517"/>
</g>
</g>
</svg>
