<?xml version="1.0" encoding="UTF-8" standalone="no"?>
<!DOCTYPE svg PUBLIC "-//W3C//DTD SVG 1.1//EN"
 "http://www.w3.org/Graphics/SVG/1.1/DTD/svg11.dtd">
<!-- Generated by graphviz version 2.38.0 (20140413.2041)
 -->
<!-- Title: models_diagram Pages: 1 -->
<svg width="416pt" height="230pt"
 viewBox="0.00 0.00 416.40 230.00" xmlns="http://www.w3.org/2000/svg" xmlns:xlink="http://www.w3.org/1999/xlink">
<g id="graph0" class="graph" transform="scale(1 1) rotate(0) translate(4 226)">
<title>models_diagram</title>
<polygon fill="none" stroke="none" points="-4,4 -4,-226 412.397,-226 412.397,4 -4,4"/>
<!-- _diagram_info -->
<g id="node1" class="node"><title>_diagram_info</title>
<text text-anchor="start" x="8" y="-207.6" font-family="Times,serif" font-size="13.00">Models diagram</text>
<text text-anchor="start" x="8" y="-193.6" font-family="Times,serif" font-size="13.00">Date: Jul 18 2016 &#45; 19:57</text>
<text text-anchor="start" x="8" y="-179.6" font-family="Times,serif" font-size="13.00">Migration version: 20160718234543</text>
<text text-anchor="start" x="8" y="-165.6" font-family="Times,serif" font-size="13.00">Generated by RailRoady 1.5.1</text>
<text text-anchor="start" x="8" y="-151.6" font-family="Times,serif" font-size="13.00">http://railroady.prestonlee.com</text>
</g>
<!-- Inventory -->
<g id="node2" class="node"><title>Inventory</title>
<ellipse fill="none" stroke="black" cx="286" cy="-18" rx="44.6926" ry="18"/>
<text text-anchor="middle" x="286" y="-14.3" font-family="Times,serif" font-size="14.00">Inventory</text>
</g>
<!-- Work -->
<g id="node3" class="node"><title>Work</title>
<ellipse fill="none" stroke="black" cx="192" cy="-18" rx="31.3957" ry="18"/>
<text text-anchor="middle" x="192" y="-14.3" font-family="Times,serif" font-size="14.00">Work</text>
</g>
<!-- Item -->
<g id="node4" class="node"><title>Item</title>
<ellipse fill="none" stroke="black" cx="275" cy="-90" rx="27.0966" ry="18"/>
<text text-anchor="middle" x="275" y="-86.3" font-family="Times,serif" font-size="14.00">Item</text>
</g>
<!-- Item&#45;&gt;Inventory -->
<g id="edge1" class="edge"><title>Item&#45;&gt;Inventory</title>
<path fill="none" stroke="#cbae8f" d="M278.931,-63.9868C279.832,-58.2493 280.795,-52.1211 281.711,-46.2929"/>
<ellipse fill="none" stroke="#cbae8f" cx="278.284" cy="-68.1034" rx="4.00001" ry="4.00001"/>
<polygon fill="#cbae8f" stroke="#cbae8f" points="281.733,-46.1541 287.731,-36.9739 282.509,-41.2147 283.285,-36.2753 283.285,-36.2753 283.285,-36.2753 282.509,-41.2147 278.84,-35.5767 281.733,-46.1541 281.733,-46.1541"/>
</g>
<!-- Item&#45;&gt;Work -->
<g id="edge2" class="edge"><title>Item&#45;&gt;Work</title>
<path fill="none" stroke="#4a64c9" d="M252.197,-69.7686C241.189,-60.4849 227.963,-49.3299 216.715,-39.8436"/>
<ellipse fill="none" stroke="#4a64c9" cx="255.544" cy="-72.5914" rx="4.00002" ry="4.00002"/>
<polygon fill="#4a64c9" stroke="#4a64c9" points="216.578,-39.7287 211.835,-29.8416 212.756,-36.5051 208.934,-33.2816 208.934,-33.2816 208.934,-33.2816 212.756,-36.5051 206.033,-36.7216 216.578,-39.7287 216.578,-39.7287"/>
</g>
<!-- Category -->
<g id="node5" class="node"><title>Category</title>
<ellipse fill="none" stroke="black" cx="275" cy="-183" rx="42.7926" ry="18"/>
<text text-anchor="middle" x="275" y="-179.3" font-family="Times,serif" font-size="14.00">Category</text>
</g>
<!-- Category&#45;&gt;Item -->
<g id="edge3" class="edge"><title>Category&#45;&gt;Item</title>
<path fill="none" stroke="#3f5401" d="M275,-156.729C275,-144.725 275,-130.362 275,-118.129"/>
<ellipse fill="none" stroke="#3f5401" cx="275" cy="-160.884" rx="4" ry="4"/>
<polygon fill="#3f5401" stroke="#3f5401" points="275,-118.04 279.5,-108.04 275,-113.04 275,-108.04 275,-108.04 275,-108.04 275,-113.04 270.5,-108.04 275,-118.04 275,-118.04"/>
</g>
<!-- Record -->
<g id="node6" class="node"><title>Record</title>
<ellipse fill="none" stroke="black" cx="372" cy="-183" rx="36.2938" ry="18"/>
<text text-anchor="middle" x="372" y="-179.3" font-family="Times,serif" font-size="14.00">Record</text>
</g>
<!-- User -->
<g id="node7" class="node"><title>User</title>
<ellipse fill="none" stroke="black" cx="192" cy="-90" rx="27.0966" ry="18"/>
<text text-anchor="middle" x="192" y="-86.3" font-family="Times,serif" font-size="14.00">User</text>
</g>
<!-- User&#45;&gt;Work -->
<g id="edge4" class="edge"><title>User&#45;&gt;Work</title>
<path fill="none" stroke="#c39897" d="M192,-63.6398C192,-58.0629 192,-52.1319 192,-46.4761"/>
<ellipse fill="none" stroke="#c39897" cx="192" cy="-67.6966" rx="4" ry="4"/>
<polygon fill="#c39897" stroke="#c39897" points="192,-46.1043 196.5,-36.1043 192,-41.1043 192,-36.1043 192,-36.1043 192,-36.1043 192,-41.1043 187.5,-36.1044 192,-46.1043 192,-46.1043"/>
</g>
</g>
</svg>
